<svg xmlns="http://www.w3.org/2000/svg" xmlns:xlink="http://www.w3.org/1999/xlink" width="500" zoomAndPan="magnify" viewBox="0 0 375 374.999991" height="500" preserveAspectRatio="xMidYMid meet" version="1.0"><defs><g/><clipPath id="id1"><path d="M 20.351562 20.351562 L 354.378906 20.351562 L 354.378906 354.378906 L 20.351562 354.378906 Z M 20.351562 20.351562 " clip-rule="nonzero"/></clipPath><clipPath id="id2"><path d="M 88.945312 88.945312 L 286.195312 88.945312 L 286.195312 286.195312 L 88.945312 286.195312 Z M 88.945312 88.945312 " clip-rule="nonzero"/></clipPath></defs><g clip-path="url(#id1)"><path fill="#7cc644" d="M 187.367188 354.378906 C 142.777344 354.378906 100.789062 337.023438 69.28125 305.449219 C 37.707031 273.945312 20.351562 231.957031 20.351562 187.367188 C 20.351562 142.777344 37.707031 100.789062 69.28125 69.28125 C 100.789062 37.707031 142.777344 20.351562 187.367188 20.351562 C 231.957031 20.351562 273.945312 37.707031 305.449219 69.28125 C 337.023438 100.855469 354.378906 142.777344 354.378906 187.367188 C 354.378906 231.957031 337.023438 273.945312 305.449219 305.449219 C 273.945312 337.023438 231.957031 354.378906 187.367188 354.378906 Z M 187.367188 30.367188 C 145.445312 30.367188 105.996094 46.71875 76.359375 76.359375 C 46.71875 105.996094 30.367188 145.445312 30.367188 187.367188 C 30.367188 229.285156 46.71875 268.738281 76.359375 298.375 C 105.996094 328.011719 145.445312 344.367188 187.367188 344.367188 C 229.285156 344.367188 268.738281 328.011719 298.375 298.375 C 328.011719 268.738281 344.367188 229.285156 344.367188 187.367188 C 344.367188 145.445312 328.011719 105.996094 298.375 76.359375 C 268.738281 46.71875 229.285156 30.367188 187.367188 30.367188 Z M 187.367188 30.367188 " fill-opacity="1" fill-rule="nonzero"/></g><g fill="#336600" fill-opacity="1"><g transform="translate(81.393868, 139.639752)"><g><path d="M -1.265625 -22.21875 L 1.4375 -26.828125 L 9.59375 -22.046875 C 9.71875 -20.441406 9.566406 -18.6875 9.140625 -16.78125 C 8.710938 -14.882812 8.070312 -13.207031 7.21875 -11.75 C 5.351562 -8.570312 2.773438 -6.515625 -0.515625 -5.578125 C -3.816406 -4.640625 -6.988281 -5.0625 -10.03125 -6.84375 C -13.0625 -8.625 -14.945312 -11.203125 -15.6875 -14.578125 C -16.4375 -17.960938 -15.84375 -21.304688 -13.90625 -24.609375 C -13 -26.160156 -11.816406 -27.539062 -10.359375 -28.75 C -8.910156 -29.96875 -7.394531 -30.832031 -5.8125 -31.34375 L -3.9375 -26.234375 C -5.082031 -25.878906 -6.148438 -25.320312 -7.140625 -24.5625 C -8.128906 -23.8125 -8.90625 -22.953125 -9.46875 -21.984375 C -10.476562 -20.265625 -10.734375 -18.472656 -10.234375 -16.609375 C -9.734375 -14.753906 -8.601562 -13.3125 -6.84375 -12.28125 C -5.082031 -11.25 -3.257812 -10.96875 -1.375 -11.4375 C 0.507812 -11.90625 1.960938 -13.007812 2.984375 -14.75 C 3.628906 -15.863281 4.015625 -17.296875 4.140625 -19.046875 Z M -1.265625 -22.21875 "/></g></g></g><g fill="#336600" fill-opacity="1"><g transform="translate(95.135939, 116.530794)"><g><path d="M 11.734375 -12.359375 L 4.296875 -14.453125 L 4.171875 -14.328125 L 0.96875 -10.9375 L 5.921875 -6.234375 L 1.671875 -1.75 L -15.921875 -18.4375 L -8.46875 -26.3125 C -6.257812 -28.632812 -4.015625 -29.925781 -1.734375 -30.1875 C 0.535156 -30.457031 2.648438 -29.664062 4.609375 -27.8125 C 7.316406 -25.238281 8.195312 -22.382812 7.25 -19.25 L 16.546875 -17.4375 Z M -2.546875 -14.265625 L 0.65625 -17.65625 C 1.582031 -18.625 2.054688 -19.609375 2.078125 -20.609375 C 2.109375 -21.609375 1.660156 -22.546875 0.734375 -23.421875 C -0.160156 -24.273438 -1.097656 -24.65625 -2.078125 -24.5625 C -3.066406 -24.476562 -4.023438 -23.953125 -4.953125 -22.984375 L -8.15625 -19.59375 Z M -2.546875 -14.265625 "/></g></g></g><g fill="#336600" fill-opacity="1"><g transform="translate(113.436429, 97.580274)"><g><path d="M 6.9375 -28.046875 L -3.6875 -20.90625 L -0.984375 -16.890625 L 8.609375 -23.328125 L 11.3125 -19.3125 L 1.71875 -12.875 L 4.4375 -8.8125 L 15.375 -16.15625 L 18.078125 -12.140625 L 2.015625 -1.34375 L -11.515625 -21.46875 L 4.234375 -32.0625 Z M 6.9375 -28.046875 "/></g></g></g><g fill="#336600" fill-opacity="1"><g transform="translate(134.024289, 83.922047)"><g><path d="M 12.71875 -25.9375 L 0.8125 -21.203125 L 2.59375 -16.71875 L 13.34375 -21 L 15.140625 -16.5 L 4.390625 -12.21875 L 6.1875 -7.671875 L 18.4375 -12.546875 L 20.234375 -8.046875 L 2.25 -0.890625 L -6.703125 -23.421875 L 10.9375 -30.4375 Z M 12.71875 -25.9375 "/></g></g></g><g fill="#336600" fill-opacity="1"><g transform="translate(156.795743, 74.777505)"><g><path d="M 24.515625 -3.703125 L 19.140625 -2.890625 L 5.875 -16 L 8.109375 -1.234375 L 2.390625 -0.359375 L -1.234375 -24.34375 L 4.140625 -25.15625 L 17.4375 -12.015625 L 15.203125 -26.828125 L 20.890625 -27.6875 Z M 24.515625 -3.703125 "/></g></g></g><g fill="#336600" fill-opacity="1"><g transform="translate(185.715394, 71.386225)"><g/></g></g><g fill="#336600" fill-opacity="1"><g transform="translate(195.999332, 71.213527)"><g><path d="M 15.71875 -22.203125 C 19.289062 -21.597656 22.269531 -20.171875 24.65625 -17.921875 L 21.59375 -13.5625 C 20.445312 -14.5 19.195312 -15.320312 17.84375 -16.03125 C 16.5 -16.75 15.335938 -17.191406 14.359375 -17.359375 C 12.609375 -17.660156 11.632812 -17.234375 11.4375 -16.078125 C 11.300781 -15.328125 11.625 -14.644531 12.40625 -14.03125 C 13.195312 -13.425781 14.1875 -12.851562 15.375 -12.3125 C 16.5625 -11.78125 17.734375 -11.171875 18.890625 -10.484375 C 20.046875 -9.804688 20.96875 -8.867188 21.65625 -7.671875 C 22.34375 -6.472656 22.550781 -5.078125 22.28125 -3.484375 C 21.882812 -1.191406 20.675781 0.441406 18.65625 1.421875 C 16.644531 2.398438 14.25 2.648438 11.46875 2.171875 C 9.488281 1.828125 7.585938 1.148438 5.765625 0.140625 C 3.941406 -0.867188 2.421875 -2.09375 1.203125 -3.53125 L 4.359375 -7.796875 C 5.390625 -6.546875 6.664062 -5.441406 8.1875 -4.484375 C 9.707031 -3.535156 11.109375 -2.953125 12.390625 -2.734375 C 13.367188 -2.566406 14.15625 -2.613281 14.75 -2.875 C 15.351562 -3.132812 15.710938 -3.601562 15.828125 -4.28125 C 15.941406 -4.9375 15.722656 -5.539062 15.171875 -6.09375 C 14.628906 -6.65625 13.910156 -7.117188 13.015625 -7.484375 C 12.128906 -7.859375 11.171875 -8.320312 10.140625 -8.875 C 9.109375 -9.425781 8.160156 -10 7.296875 -10.59375 C 6.429688 -11.1875 5.765625 -12.007812 5.296875 -13.0625 C 4.835938 -14.113281 4.722656 -15.300781 4.953125 -16.625 C 5.328125 -18.8125 6.492188 -20.410156 8.453125 -21.421875 C 10.421875 -22.429688 12.84375 -22.691406 15.71875 -22.203125 Z M 15.71875 -22.203125 "/></g></g></g><g fill="#336600" fill-opacity="1"><g transform="translate(219.446609, 75.434514)"><g><path d="M 26.515625 -10.40625 L 19.703125 -13.046875 L 12.71875 4.9375 L 6.984375 2.703125 L 13.96875 -15.28125 L 7.21875 -17.890625 L 9.015625 -22.546875 L 28.3125 -15.0625 Z M 26.515625 -10.40625 "/></g></g></g><g fill="#336600" fill-opacity="1"><g transform="translate(240.45824, 83.338897)"><g><path d="M 25.203125 -12.5 C 28.328125 -10.394531 30.269531 -7.675781 31.03125 -4.34375 C 31.789062 -1.007812 31.1875 2.113281 29.21875 5.03125 C 27.25 7.957031 24.5625 9.707031 21.15625 10.28125 C 17.75 10.851562 14.492188 10.09375 11.390625 8 C 8.285156 5.914062 6.359375 3.195312 5.609375 -0.15625 C 4.867188 -3.507812 5.488281 -6.660156 7.46875 -9.609375 C 9.445312 -12.546875 12.117188 -14.285156 15.484375 -14.828125 C 18.859375 -15.367188 22.097656 -14.59375 25.203125 -12.5 Z M 22.390625 -8.1875 C 20.816406 -9.238281 19.085938 -9.566406 17.203125 -9.171875 C 15.328125 -8.785156 13.820312 -7.75 12.6875 -6.0625 C 11.550781 -4.382812 11.15625 -2.585938 11.5 -0.671875 C 11.84375 1.234375 12.789062 2.707031 14.34375 3.75 C 15.894531 4.789062 17.597656 5.097656 19.453125 4.671875 C 21.316406 4.253906 22.816406 3.203125 23.953125 1.515625 C 25.085938 -0.160156 25.5 -1.9375 25.1875 -3.8125 C 24.875 -5.6875 23.941406 -7.144531 22.390625 -8.1875 Z M 22.390625 -8.1875 "/></g></g></g><g fill="#336600" fill-opacity="1"><g transform="translate(264.283211, 99.725446)"><g><path d="M 11.5 12.578125 L 14.09375 5.3125 L 13.984375 5.171875 L 10.828125 1.734375 L 5.796875 6.34375 L 1.640625 1.78125 L 19.53125 -14.578125 L 26.84375 -6.578125 C 29.007812 -4.203125 30.140625 -1.875 30.234375 0.40625 C 30.335938 2.6875 29.394531 4.738281 27.40625 6.5625 C 24.644531 9.082031 21.742188 9.753906 18.703125 8.578125 L 16.234375 17.75 Z M 14.40625 -1.53125 L 17.5625 1.90625 C 18.46875 2.90625 19.414062 3.445312 20.40625 3.53125 C 21.40625 3.625 22.375 3.238281 23.3125 2.375 C 24.226562 1.539062 24.675781 0.632812 24.65625 -0.34375 C 24.632812 -1.320312 24.171875 -2.3125 23.265625 -3.3125 L 20.109375 -6.75 Z M 14.40625 -1.53125 "/></g></g></g><g fill="#336600" fill-opacity="1"><g transform="translate(281.885323, 119.326635)"><g><path d="M 27.484375 8.90625 L 21.109375 -2.203125 L 16.921875 0.203125 L 22.671875 10.234375 L 18.46875 12.640625 L 12.71875 2.609375 L 8.484375 5.046875 L 15.046875 16.484375 L 10.84375 18.890625 L 1.203125 2.09375 L 22.234375 -9.96875 L 31.6875 6.5 Z M 27.484375 8.90625 "/></g></g></g><g fill="#336600" fill-opacity="1"><g transform="translate(84.203239, 281.941033)"><g><path d="M 22.640625 -0.890625 L 15.6875 -7.6875 L 11.75 -3.671875 L 18.046875 2.5 L 16.015625 4.5625 L 9.71875 -1.609375 L 4.15625 4.078125 L 1.8125 1.78125 L 15.390625 -12.078125 L 24.703125 -2.953125 Z M 22.640625 -0.890625 "/></g></g></g><g fill="#336600" fill-opacity="1"><g transform="translate(99.513884, 296.48996)"><g><path d="M 22.90625 -3.953125 L 14.265625 -10.0625 L 11.234375 -5.78125 L 18.96875 -0.3125 L 17.265625 2.078125 L 9.53125 -3.390625 L 6.453125 0.984375 L 15.359375 7.28125 L 13.65625 9.671875 L 2.078125 1.46875 L 13.296875 -14.375 L 24.609375 -6.359375 Z M 22.90625 -3.953125 "/></g></g></g><g fill="#336600" fill-opacity="1"><g transform="translate(118.661823, 309.273777)"><g><path d="M 5.15625 2.71875 L 2.25 1.1875 L 11.328125 -15.96875 L 14.234375 -14.4375 Z M 5.15625 2.71875 "/></g></g></g><g fill="#336600" fill-opacity="1"><g transform="translate(130.417174, 315.560792)"><g><path d="M 13.96875 5.09375 L 12.640625 -1.640625 C 12.453125 -1.679688 12.171875 -1.773438 11.796875 -1.921875 L 7.46875 -3.484375 L 5.46875 2 L 2.390625 0.875 L 9.03125 -17.359375 L 16.4375 -14.671875 C 18.757812 -13.816406 20.363281 -12.613281 21.25 -11.0625 C 22.144531 -9.507812 22.234375 -7.75 21.515625 -5.78125 C 20.984375 -4.320312 20.207031 -3.203125 19.1875 -2.421875 C 18.164062 -1.648438 16.960938 -1.253906 15.578125 -1.234375 L 17.453125 6.359375 Z M 8.46875 -6.25 L 12.796875 -4.6875 C 15.742188 -3.601562 17.664062 -4.285156 18.5625 -6.734375 C 19.425781 -9.097656 18.382812 -10.820312 15.4375 -11.90625 L 11.109375 -13.46875 Z M 8.46875 -6.25 "/></g></g></g><g fill="#336600" fill-opacity="1"><g transform="translate(154.53449, 323.831277)"><g><path d="M 15.59375 -1.828125 L 5.9375 -3.4375 L 3.390625 0.5625 L 0.03125 0 L 11.671875 -17.71875 L 15 -17.171875 L 20.140625 3.359375 L 16.703125 2.796875 Z M 14.84375 -4.921875 L 12.65625 -14.015625 L 7.625 -6.125 Z M 14.84375 -4.921875 "/></g></g></g><g fill="#336600" fill-opacity="1"><g transform="translate(179.638598, 327.241824)"><g/></g></g><g fill="#336600" fill-opacity="1"><g transform="translate(191.457442, 327.568147)"><g><path d="M 5.578125 -3.421875 L 13.9375 -4.09375 L 14.171875 -1.140625 L 2.53125 -0.203125 L 0.96875 -19.546875 L 4.25 -19.8125 Z M 5.578125 -3.421875 "/></g></g></g><g fill="#336600" fill-opacity="1"><g transform="translate(210.858462, 325.542879)"><g><path d="M 5.71875 -1.140625 L 2.5 -0.5 L -1.296875 -19.53125 L 1.921875 -20.171875 Z M 5.71875 -1.140625 "/></g></g></g><g fill="#336600" fill-opacity="1"><g transform="translate(223.895072, 322.970016)"><g><path d="M 10.59375 -3.640625 L 7.390625 -2.53125 L -6.21875 -18.390625 L -2.890625 -19.53125 L 7.90625 -6.53125 L 8.5 -23.4375 L 11.71875 -24.546875 Z M 10.59375 -3.640625 "/></g></g></g><g fill="#336600" fill-opacity="1"><g transform="translate(246.944996, 314.592807)"><g><path d="M 12.96875 -7.25 L 7.015625 -10.640625 C 6.859375 -10.535156 6.601562 -10.382812 6.25 -10.1875 L 2.25 -7.953125 L 5.09375 -2.84375 L 2.21875 -1.234375 L -7.234375 -18.171875 L -0.359375 -22.015625 C 1.804688 -23.222656 3.765625 -23.65625 5.515625 -23.3125 C 7.273438 -22.976562 8.664062 -21.890625 9.6875 -20.046875 C 10.445312 -18.691406 10.785156 -17.375 10.703125 -16.09375 C 10.617188 -14.820312 10.140625 -13.65625 9.265625 -12.59375 L 16.21875 -9.0625 Z M 0.8125 -10.515625 L 4.8125 -12.75 C 7.5625 -14.28125 8.300781 -16.179688 7.03125 -18.453125 C 5.800781 -20.648438 3.8125 -20.984375 1.0625 -19.453125 L -2.9375 -17.21875 Z M 0.8125 -10.515625 "/></g></g></g><g fill="#336600" fill-opacity="1"><g transform="translate(268.840716, 301.73979)"><g><path d="M 2.3125 -23.140625 L -5.890625 -16.453125 L -2.578125 -12.375 L 4.765625 -18.359375 L 6.625 -16.09375 L -0.71875 -10.109375 L 2.65625 -5.96875 L 11.109375 -12.859375 L 12.96875 -10.578125 L 1.96875 -1.609375 L -10.296875 -16.640625 L 0.453125 -25.40625 Z M 2.3125 -23.140625 "/></g></g></g><g fill="#336600" fill-opacity="1"><g transform="translate(286.227124, 286.727222)"><g/></g></g><path fill="#336600" d="M 256.148438 157.589844 C 247.382812 146.589844 229.21875 142.890625 215.96875 143.503906 C 225.910156 145.90625 236.945312 151.960938 244.5 160.148438 C 236.945312 154.691406 216.359375 142.328125 208.140625 144.492188 C 217.910156 137.621094 229.148438 133.289062 238.667969 131.617188 C 236.195312 129.367188 233.585938 127.269531 230.839844 125.359375 C 227.425781 128.75 225.414062 129.65625 221.304688 131.667969 C 215.558594 134.5 208.414062 138.488281 204.285156 142.410156 C 206.691406 133.476562 196.628906 112.960938 178.652344 112.875 C 170.535156 112.839844 162.910156 117.425781 168.878906 124.640625 C 173.878906 130.679688 186.90625 130.082031 194.171875 133.457031 C 198.742188 135.589844 200.140625 139.207031 200.414062 142.480469 C 185.59375 134.429688 142.804688 131.140625 123.804688 149.832031 C 112.277344 161.1875 118.46875 175.308594 136.714844 171.421875 C 153.71875 167.804688 164.359375 156.773438 178.328125 148.960938 C 181.945312 146.949219 184.722656 145.566406 186.957031 144.699219 C 172.460938 143.367188 157.265625 145.414062 137.363281 155.78125 C 154.605469 144.03125 181.109375 137.433594 199.320312 146.402344 C 193.335938 151.519531 186.464844 159.261719 181.601562 167.34375 C 181.773438 167.292969 184.621094 168.796875 184.929688 168.984375 C 190.128906 160.523438 195.773438 154.914062 199.765625 150.9375 C 199.699219 159.363281 200.738281 167.515625 204.269531 174.046875 C 204.949219 173.605469 206.503906 172.613281 206.636719 172.632812 C 203.789062 167.140625 202.953125 158.339844 203.585938 147.851562 C 210.339844 144.5625 213.886719 149.199219 217.636719 152.285156 C 228.125 160.863281 233.429688 167.738281 245.148438 171.746094 C 257.734375 176.058594 263.328125 166.59375 256.148438 157.589844 Z M 256.148438 157.589844 " fill-opacity="1" fill-rule="nonzero"/><path fill="#336600" d="M 203.976562 174.269531 C 202.136719 175.601562 200.566406 177.269531 199.289062 179.179688 C 204.269531 190.675781 203.550781 204.457031 199.851562 216.1875 C 206.347656 229.59375 222.773438 245.726562 239.023438 240.183594 C 248.335938 224.902344 224.835938 183.5625 206.671875 172.648438 C 206.503906 172.613281 204.183594 174.117188 203.976562 174.269531 Z M 203.976562 174.269531 " fill-opacity="1" fill-rule="nonzero"/><path fill="#7cc644" d="M 244.855469 236.910156 C 249.648438 220.417969 224.121094 179.148438 207.304688 172.34375 C 219.90625 166.699219 237.351562 175.855469 246.921875 193.472656 C 255.992188 210.152344 254.851562 228.621094 244.855469 236.910156 Z M 184.945312 169 C 198.621094 177.21875 202.359375 199.679688 193.082031 221.015625 C 183.972656 241.976562 165.488281 254.476562 150.308594 250.757812 C 137.6875 233.617188 161.207031 182.183594 181.601562 167.363281 C 181.773438 167.292969 184.671875 168.828125 184.945312 169 Z M 184.945312 169 " fill-opacity="1" fill-rule="nonzero"/><path fill="#336600" d="M 143.042969 247.464844 C 135.640625 228.433594 161.582031 176.863281 180.800781 167.039062 C 165.265625 161.648438 145.566406 174.320312 136.066406 196.203125 C 127.0625 216.921875 130.335938 238.699219 143.042969 247.464844 Z M 143.042969 247.464844 " fill-opacity="1" fill-rule="nonzero"/><g clip-path="url(#id2)"><path fill="#7cc644" d="M 187.570312 88.945312 C 133.132812 88.945312 88.945312 133.132812 88.945312 187.570312 C 88.945312 241.992188 133.132812 286.195312 187.570312 286.195312 C 241.992188 286.195312 286.195312 242.007812 286.195312 187.570312 C 286.179688 133.132812 241.992188 88.945312 187.570312 88.945312 Z M 271.582031 187.570312 C 271.582031 233.941406 233.941406 271.582031 187.570312 271.582031 C 141.335938 271.582031 103.5625 233.804688 103.5625 187.570312 C 103.5625 141.203125 141.203125 103.5625 187.570312 103.5625 C 233.789062 103.5625 271.582031 141.335938 271.582031 187.570312 Z M 271.582031 187.570312 " fill-opacity="1" fill-rule="nonzero"/></g></svg>