<svg xmlns="http://www.w3.org/2000/svg" xmlns:xlink="http://www.w3.org/1999/xlink" width="500" zoomAndPan="magnify" viewBox="0 0 375 374.999991" height="500" preserveAspectRatio="xMidYMid meet" version="1.0"><defs><g/><clipPath id="id1"><path d="M 91.03125 91.03125 L 283.816406 91.03125 L 283.816406 283.816406 L 91.03125 283.816406 Z M 91.03125 91.03125 " clip-rule="nonzero"/></clipPath><clipPath id="id2"><path d="M 130.621094 130.621094 L 244.621094 130.621094 L 244.621094 244.621094 L 130.621094 244.621094 Z M 130.621094 130.621094 " clip-rule="nonzero"/></clipPath></defs><g clip-path="url(#id1)"><path fill="#7cc644" d="M 187.421875 283.816406 C 161.6875 283.816406 137.453125 273.796875 119.269531 255.574219 C 101.046875 237.390625 91.03125 213.160156 91.03125 187.421875 C 91.03125 161.6875 101.046875 137.453125 119.269531 119.269531 C 137.453125 101.046875 161.6875 91.03125 187.421875 91.03125 C 213.160156 91.03125 237.390625 101.046875 255.574219 119.269531 C 273.796875 137.492188 283.816406 161.6875 283.816406 187.421875 C 283.816406 213.160156 273.796875 237.390625 255.574219 255.574219 C 237.390625 273.796875 213.160156 283.816406 187.421875 283.816406 Z M 187.421875 96.808594 C 163.226562 96.808594 140.460938 106.25 123.355469 123.355469 C 106.25 140.460938 96.808594 163.226562 96.808594 187.421875 C 96.808594 211.617188 106.25 234.386719 123.355469 251.492188 C 140.460938 268.597656 163.226562 278.035156 187.421875 278.035156 C 211.617188 278.035156 234.386719 268.597656 251.492188 251.492188 C 268.597656 234.386719 278.035156 211.617188 278.035156 187.421875 C 278.035156 163.226562 268.597656 140.460938 251.492188 123.355469 C 234.386719 106.25 211.617188 96.808594 187.421875 96.808594 Z M 187.421875 96.808594 " fill-opacity="1" fill-rule="nonzero"/></g><g fill="#336600" fill-opacity="1"><g transform="translate(126.260528, 159.877312)"><g><path d="M -0.734375 -12.84375 L 0.828125 -15.5 L 5.546875 -12.734375 C 5.617188 -11.804688 5.53125 -10.789062 5.28125 -9.6875 C 5.03125 -8.59375 4.65625 -7.625 4.15625 -6.78125 C 3.082031 -4.945312 1.597656 -3.757812 -0.296875 -3.21875 C -2.191406 -2.675781 -4.023438 -2.925781 -5.796875 -3.96875 C -7.546875 -4.988281 -8.632812 -6.472656 -9.0625 -8.421875 C -9.5 -10.367188 -9.160156 -12.300781 -8.046875 -14.21875 C -7.515625 -15.113281 -6.828125 -15.910156 -5.984375 -16.609375 C -5.140625 -17.304688 -4.265625 -17.804688 -3.359375 -18.109375 L -2.265625 -15.140625 C -2.921875 -14.941406 -3.535156 -14.625 -4.109375 -14.1875 C -4.691406 -13.75 -5.144531 -13.25 -5.46875 -12.6875 C -6.050781 -11.6875 -6.195312 -10.65625 -5.90625 -9.59375 C -5.625 -8.53125 -4.976562 -7.703125 -3.96875 -7.109375 C -2.9375 -6.503906 -1.875 -6.335938 -0.78125 -6.609375 C 0.3125 -6.878906 1.148438 -7.515625 1.734375 -8.515625 C 2.109375 -9.160156 2.328125 -9.988281 2.390625 -11 Z M -0.734375 -12.84375 "/></g></g></g><g fill="#336600" fill-opacity="1"><g transform="translate(134.191803, 146.539906)"><g><path d="M 6.78125 -7.140625 L 2.484375 -8.34375 L 2.40625 -8.25 L 0.546875 -6.296875 L 3.40625 -3.59375 L 0.96875 -1.015625 L -9.1875 -10.65625 L -4.890625 -15.1875 C -3.609375 -16.539062 -2.3125 -17.289062 -1 -17.4375 C 0.3125 -17.59375 1.53125 -17.132812 2.65625 -16.0625 C 4.226562 -14.570312 4.734375 -12.925781 4.171875 -11.125 L 9.546875 -10.0625 Z M -1.484375 -8.234375 L 0.375 -10.1875 C 0.90625 -10.75 1.175781 -11.316406 1.1875 -11.890625 C 1.207031 -12.472656 0.953125 -13.015625 0.421875 -13.515625 C -0.0976562 -14.015625 -0.640625 -14.238281 -1.203125 -14.1875 C -1.773438 -14.132812 -2.328125 -13.828125 -2.859375 -13.265625 L -4.71875 -11.3125 Z M -1.484375 -8.234375 "/></g></g></g><g fill="#336600" fill-opacity="1"><g transform="translate(144.753988, 135.602559)"><g><path d="M 4.015625 -16.1875 L -2.140625 -12.0625 L -0.59375 -9.75 L 4.953125 -13.46875 L 6.515625 -11.15625 L 0.96875 -7.4375 L 2.546875 -5.09375 L 8.875 -9.34375 L 10.4375 -7.015625 L 1.171875 -0.78125 L -6.640625 -12.40625 L 2.453125 -18.515625 Z M 4.015625 -16.1875 "/></g></g></g><g fill="#336600" fill-opacity="1"><g transform="translate(156.636338, 127.719668)"><g><path d="M 7.34375 -14.96875 L 0.46875 -12.234375 L 1.5 -9.65625 L 7.703125 -12.125 L 8.734375 -9.53125 L 2.53125 -7.0625 L 3.578125 -4.421875 L 10.65625 -7.234375 L 11.6875 -4.640625 L 1.3125 -0.515625 L -3.859375 -13.53125 L 6.3125 -17.578125 Z M 7.34375 -14.96875 "/></g></g></g><g fill="#336600" fill-opacity="1"><g transform="translate(169.778936, 122.441872)"><g><path d="M 14.15625 -2.140625 L 11.0625 -1.671875 L 3.390625 -9.234375 L 4.6875 -0.703125 L 1.390625 -0.203125 L -0.703125 -14.046875 L 2.40625 -14.53125 L 10.078125 -6.9375 L 8.78125 -15.484375 L 12.0625 -15.984375 Z M 14.15625 -2.140625 "/></g></g></g><g fill="#336600" fill-opacity="1"><g transform="translate(186.470015, 120.484589)"><g/></g></g><g fill="#336600" fill-opacity="1"><g transform="translate(192.405387, 120.384912)"><g><path d="M 9.078125 -12.8125 C 11.140625 -12.457031 12.863281 -11.628906 14.25 -10.328125 L 12.453125 -7.828125 C 11.804688 -8.367188 11.09375 -8.847656 10.3125 -9.265625 C 9.53125 -9.679688 8.859375 -9.9375 8.296875 -10.03125 C 7.273438 -10.207031 6.707031 -9.960938 6.59375 -9.296875 C 6.507812 -8.847656 6.695312 -8.445312 7.15625 -8.09375 C 7.613281 -7.75 8.1875 -7.421875 8.875 -7.109375 C 9.5625 -6.796875 10.238281 -6.441406 10.90625 -6.046875 C 11.570312 -5.660156 12.101562 -5.125 12.5 -4.4375 C 12.90625 -3.75 13.03125 -2.941406 12.875 -2.015625 C 12.644531 -0.691406 11.945312 0.25 10.78125 0.8125 C 9.625 1.382812 8.238281 1.535156 6.625 1.265625 C 5.476562 1.066406 4.378906 0.671875 3.328125 0.078125 C 2.285156 -0.503906 1.410156 -1.207031 0.703125 -2.03125 L 2.5 -4.5 C 3.09375 -3.769531 3.832031 -3.128906 4.71875 -2.578125 C 5.601562 -2.035156 6.414062 -1.703125 7.15625 -1.578125 C 7.71875 -1.484375 8.171875 -1.507812 8.515625 -1.65625 C 8.859375 -1.800781 9.066406 -2.070312 9.140625 -2.46875 C 9.203125 -2.851562 9.078125 -3.203125 8.765625 -3.515625 C 8.453125 -3.835938 8.035156 -4.109375 7.515625 -4.328125 C 7.003906 -4.546875 6.445312 -4.8125 5.84375 -5.125 C 5.25 -5.445312 4.703125 -5.773438 4.203125 -6.109375 C 3.710938 -6.453125 3.332031 -6.925781 3.0625 -7.53125 C 2.800781 -8.144531 2.734375 -8.832031 2.859375 -9.59375 C 3.078125 -10.851562 3.753906 -11.773438 4.890625 -12.359375 C 6.023438 -12.941406 7.421875 -13.09375 9.078125 -12.8125 Z M 9.078125 -12.8125 "/></g></g></g><g fill="#336600" fill-opacity="1"><g transform="translate(205.938084, 122.821076)"><g><path d="M 15.3125 -6.015625 L 11.375 -7.546875 L 7.34375 2.84375 L 4.015625 1.5625 L 8.046875 -8.828125 L 4.15625 -10.34375 L 5.203125 -13.015625 L 16.359375 -8.6875 Z M 15.3125 -6.015625 "/></g></g></g><g fill="#336600" fill-opacity="1"><g transform="translate(218.065007, 127.383111)"><g><path d="M 14.5625 -7.21875 C 16.363281 -6.007812 17.484375 -4.441406 17.921875 -2.515625 C 18.367188 -0.585938 18.023438 1.21875 16.890625 2.90625 C 15.742188 4.59375 14.1875 5.597656 12.21875 5.921875 C 10.25 6.253906 8.367188 5.816406 6.578125 4.609375 C 4.785156 3.398438 3.675781 1.832031 3.25 -0.09375 C 2.820312 -2.03125 3.179688 -3.847656 4.328125 -5.546875 C 5.460938 -7.242188 7.003906 -8.25 8.953125 -8.5625 C 10.898438 -8.882812 12.769531 -8.4375 14.5625 -7.21875 Z M 12.921875 -4.71875 C 12.015625 -5.332031 11.019531 -5.523438 9.9375 -5.296875 C 8.851562 -5.078125 7.984375 -4.476562 7.328125 -3.5 C 6.671875 -2.53125 6.441406 -1.488281 6.640625 -0.375 C 6.835938 0.726562 7.382812 1.582031 8.28125 2.1875 C 9.175781 2.789062 10.160156 2.960938 11.234375 2.703125 C 12.304688 2.453125 13.171875 1.835938 13.828125 0.859375 C 14.484375 -0.109375 14.71875 -1.128906 14.53125 -2.203125 C 14.351562 -3.273438 13.816406 -4.113281 12.921875 -4.71875 Z M 12.921875 -4.71875 "/></g></g></g><g fill="#336600" fill-opacity="1"><g transform="translate(231.815673, 136.840653)"><g><path d="M 6.640625 7.265625 L 8.140625 3.078125 L 8.078125 3 L 6.25 1 L 3.34375 3.65625 L 0.953125 1.03125 L 11.28125 -8.421875 L 15.5 -3.796875 C 16.75 -2.429688 17.398438 -1.085938 17.453125 0.234375 C 17.515625 1.554688 16.972656 2.742188 15.828125 3.796875 C 14.222656 5.253906 12.539062 5.640625 10.78125 4.953125 L 9.359375 10.234375 Z M 8.3125 -0.890625 L 10.140625 1.109375 C 10.660156 1.671875 11.207031 1.976562 11.78125 2.03125 C 12.351562 2.09375 12.910156 1.875 13.453125 1.375 C 13.984375 0.894531 14.242188 0.367188 14.234375 -0.203125 C 14.222656 -0.773438 13.957031 -1.34375 13.4375 -1.90625 L 11.609375 -3.90625 Z M 8.3125 -0.890625 "/></g></g></g><g fill="#336600" fill-opacity="1"><g transform="translate(241.974758, 148.153528)"><g><path d="M 15.875 5.140625 L 12.1875 -1.28125 L 9.78125 0.109375 L 13.109375 5.90625 L 10.671875 7.296875 L 7.34375 1.5 L 4.890625 2.90625 L 8.6875 9.515625 L 6.265625 10.90625 L 0.703125 1.21875 L 12.84375 -5.75 L 18.296875 3.75 Z M 15.875 5.140625 "/></g></g></g><g fill="#336600" fill-opacity="1"><g transform="translate(127.881955, 242.006884)"><g><path d="M 13.0625 -0.5 L 9.0625 -4.4375 L 6.796875 -2.125 L 10.421875 1.453125 L 9.25 2.640625 L 5.625 -0.9375 L 2.40625 2.34375 L 1.046875 1.03125 L 8.890625 -6.96875 L 14.265625 -1.71875 Z M 13.0625 -0.5 "/></g></g></g><g fill="#336600" fill-opacity="1"><g transform="translate(136.718553, 250.403849)"><g><path d="M 13.21875 -2.28125 L 8.21875 -5.8125 L 6.484375 -3.359375 L 10.953125 -0.1875 L 9.96875 1.203125 L 5.5 -1.96875 L 3.71875 0.546875 L 8.859375 4.1875 L 7.875 5.578125 L 1.203125 0.84375 L 7.671875 -8.296875 L 14.203125 -3.671875 Z M 13.21875 -2.28125 "/></g></g></g><g fill="#336600" fill-opacity="1"><g transform="translate(147.76984, 257.782077)"><g><path d="M 2.96875 1.5625 L 1.296875 0.6875 L 6.53125 -9.21875 L 8.203125 -8.34375 Z M 2.96875 1.5625 "/></g></g></g><g fill="#336600" fill-opacity="1"><g transform="translate(154.554473, 261.410626)"><g><path d="M 8.0625 2.9375 L 7.296875 -0.953125 C 7.191406 -0.972656 7.03125 -1.023438 6.8125 -1.109375 L 4.3125 -2.015625 L 3.15625 1.15625 L 1.375 0.5 L 5.203125 -10.03125 L 9.484375 -8.46875 C 10.816406 -7.976562 11.742188 -7.28125 12.265625 -6.375 C 12.785156 -5.476562 12.835938 -4.457031 12.421875 -3.3125 C 12.109375 -2.476562 11.65625 -1.835938 11.0625 -1.390625 C 10.476562 -0.953125 9.785156 -0.726562 8.984375 -0.71875 L 10.078125 3.671875 Z M 4.890625 -3.609375 L 7.390625 -2.703125 C 9.085938 -2.085938 10.195312 -2.488281 10.71875 -3.90625 C 11.207031 -5.257812 10.601562 -6.242188 8.90625 -6.859375 L 6.40625 -7.765625 Z M 4.890625 -3.609375 "/></g></g></g><g fill="#336600" fill-opacity="1"><g transform="translate(168.47385, 266.183977)"><g><path d="M 9 -1.0625 L 3.4375 -2 L 1.953125 0.328125 L 0.015625 0 L 6.734375 -10.234375 L 8.640625 -9.90625 L 11.640625 1.9375 L 9.640625 1.609375 Z M 8.5625 -2.828125 L 7.3125 -8.09375 L 4.40625 -3.515625 Z M 8.5625 -2.828125 "/></g></g></g><g fill="#336600" fill-opacity="1"><g transform="translate(182.962763, 268.152367)"><g/></g></g><g fill="#336600" fill-opacity="1"><g transform="translate(189.784045, 268.340731)"><g><path d="M 3.203125 -1.984375 L 8.03125 -2.375 L 8.171875 -0.65625 L 1.46875 -0.125 L 0.5625 -11.296875 L 2.4375 -11.4375 Z M 3.203125 -1.984375 "/></g></g></g><g fill="#336600" fill-opacity="1"><g transform="translate(200.981417, 267.17184)"><g><path d="M 3.296875 -0.65625 L 1.4375 -0.28125 L -0.75 -11.265625 L 1.109375 -11.640625 Z M 3.296875 -0.65625 "/></g></g></g><g fill="#336600" fill-opacity="1"><g transform="translate(208.505503, 265.686911)"><g><path d="M 6.125 -2.09375 L 4.265625 -1.46875 L -3.59375 -10.609375 L -1.671875 -11.265625 L 4.5625 -3.78125 L 4.90625 -13.53125 L 6.75 -14.15625 Z M 6.125 -2.09375 "/></g></g></g><g fill="#336600" fill-opacity="1"><g transform="translate(221.808843, 260.851969)"><g><path d="M 7.484375 -4.1875 L 4.046875 -6.140625 C 3.960938 -6.085938 3.816406 -6.003906 3.609375 -5.890625 L 1.296875 -4.59375 L 2.9375 -1.640625 L 1.28125 -0.71875 L -4.1875 -10.5 L -0.21875 -12.71875 C 1.03125 -13.40625 2.160156 -13.648438 3.171875 -13.453125 C 4.191406 -13.265625 5 -12.640625 5.59375 -11.578125 C 6.03125 -10.796875 6.222656 -10.035156 6.171875 -9.296875 C 6.128906 -8.554688 5.847656 -7.882812 5.328125 -7.28125 L 9.359375 -5.21875 Z M 0.46875 -6.078125 L 2.78125 -7.375 C 4.363281 -8.257812 4.785156 -9.351562 4.046875 -10.65625 C 3.347656 -11.925781 2.207031 -12.117188 0.625 -11.234375 L -1.6875 -9.9375 Z M 0.46875 -6.078125 "/></g></g></g><g fill="#336600" fill-opacity="1"><g transform="translate(234.44603, 253.433811)"><g><path d="M 1.34375 -13.34375 L -3.390625 -9.484375 L -1.484375 -7.15625 L 2.75 -10.609375 L 3.828125 -9.28125 L -0.40625 -5.828125 L 1.53125 -3.4375 L 6.40625 -7.421875 L 7.484375 -6.109375 L 1.140625 -0.921875 L -5.9375 -9.609375 L 0.265625 -14.671875 Z M 1.34375 -13.34375 "/></g></g></g><g fill="#336600" fill-opacity="1"><g transform="translate(244.480647, 244.76927)"><g/></g></g><path fill="#336600" d="M 227.253906 170.292969 C 222.1875 163.933594 211.6875 161.796875 204.03125 162.152344 C 209.777344 163.539062 216.152344 167.039062 220.519531 171.769531 C 216.152344 168.617188 204.257812 161.46875 199.507812 162.722656 C 205.15625 158.75 211.648438 156.246094 217.148438 155.28125 C 215.71875 153.980469 214.210938 152.765625 212.625 151.664062 C 210.65625 153.625 209.492188 154.148438 207.117188 155.308594 C 203.792969 156.945312 199.664062 159.253906 197.277344 161.519531 C 198.667969 156.355469 192.855469 144.496094 182.464844 144.449219 C 177.773438 144.429688 173.367188 147.078125 176.816406 151.25 C 179.703125 154.738281 187.234375 154.394531 191.433594 156.34375 C 194.074219 157.578125 194.882812 159.667969 195.042969 161.558594 C 186.476562 156.90625 161.746094 155.003906 150.765625 165.808594 C 144.101562 172.371094 147.679688 180.53125 158.226562 178.285156 C 168.054688 176.195312 174.207031 169.820312 182.277344 165.304688 C 184.367188 164.140625 185.972656 163.34375 187.265625 162.839844 C 178.886719 162.070312 170.105469 163.253906 158.601562 169.246094 C 168.566406 162.457031 183.882812 158.640625 194.410156 163.828125 C 190.953125 166.78125 186.980469 171.257812 184.171875 175.929688 C 184.269531 175.902344 185.914062 176.769531 186.09375 176.875 C 189.097656 171.988281 192.359375 168.746094 194.667969 166.449219 C 194.628906 171.316406 195.230469 176.027344 197.269531 179.804688 C 197.664062 179.546875 198.558594 178.976562 198.640625 178.984375 C 196.992188 175.8125 196.511719 170.726562 196.875 164.664062 C 200.777344 162.761719 202.828125 165.441406 204.996094 167.226562 C 211.058594 172.183594 214.125 176.15625 220.894531 178.472656 C 228.167969 180.964844 231.402344 175.496094 227.253906 170.292969 Z M 227.253906 170.292969 " fill-opacity="1" fill-rule="nonzero"/><path fill="#336600" d="M 197.101562 179.933594 C 196.039062 180.699219 195.128906 181.667969 194.390625 182.769531 C 197.269531 189.414062 196.855469 197.378906 194.714844 204.160156 C 198.472656 211.90625 207.964844 221.230469 217.355469 218.027344 C 222.738281 209.195312 209.15625 185.304688 198.660156 178.996094 C 198.558594 178.976562 197.21875 179.84375 197.101562 179.933594 Z M 197.101562 179.933594 " fill-opacity="1" fill-rule="nonzero"/><path fill="#7cc644" d="M 220.726562 216.132812 C 223.496094 206.601562 208.742188 182.75 199.023438 178.816406 C 206.308594 175.554688 216.390625 180.847656 221.921875 191.03125 C 227.164062 200.667969 226.503906 211.34375 220.726562 216.132812 Z M 186.101562 176.886719 C 194.007812 181.636719 196.164062 194.617188 190.804688 206.949219 C 185.539062 219.0625 174.855469 226.285156 166.082031 224.136719 C 158.789062 214.230469 172.382812 184.503906 184.171875 175.941406 C 184.269531 175.902344 185.945312 176.789062 186.101562 176.886719 Z M 186.101562 176.886719 " fill-opacity="1" fill-rule="nonzero"/><path fill="#336600" d="M 161.882812 222.234375 C 157.605469 211.234375 172.597656 181.429688 183.707031 175.753906 C 174.726562 172.636719 163.34375 179.960938 157.851562 192.605469 C 152.648438 204.582031 154.542969 217.167969 161.882812 222.234375 Z M 161.882812 222.234375 " fill-opacity="1" fill-rule="nonzero"/><g clip-path="url(#id2)"><path fill="#7cc644" d="M 187.621094 130.621094 C 156.15625 130.621094 130.621094 156.15625 130.621094 187.621094 C 130.621094 219.070312 156.15625 244.621094 187.621094 244.621094 C 219.070312 244.621094 244.621094 219.082031 244.621094 187.621094 C 244.609375 156.15625 219.070312 130.621094 187.621094 130.621094 Z M 236.171875 187.621094 C 236.171875 214.417969 214.417969 236.171875 187.621094 236.171875 C 160.898438 236.171875 139.066406 214.339844 139.066406 187.621094 C 139.066406 160.820312 160.820312 139.066406 187.621094 139.066406 C 214.332031 139.066406 236.171875 160.898438 236.171875 187.621094 Z M 236.171875 187.621094 " fill-opacity="1" fill-rule="nonzero"/></g></svg>